# xmcd CD database file
#
# Track frame offsets:
#	150
#	16251
#	30669
#	54720
#	73190
#
# Disc length: 1138 seconds
#
# Revision: 0
# Processed by: cddbd v1.5.1PL0 Copyright (c) Steve Scherf et al.
# Submitted via: CDex 1.51
#
DISCID=3e047005
DTITLE=イオシス - BLIND DIVE
DYEAR=1900
DGENRE=未分類 (日本)
TTITLE0=BLIND DIVE
TTITLE1=WARP
TTITLE2=GLASS
TTITLE3=UNLIMITED
TTITLE4=BLIND DIVE (MELODY BOX)
EXTD=
EXTT0=
EXTT1=
EXTT2=
EXTT3=
EXTT4=
PLAYORDER=
